<svg width="19" height="18" viewBox="0 0 19 18" fill="none" xmlns="http://www.w3.org/2000/svg">
<path fill-rule="evenodd" clip-rule="evenodd" d="M9.72207 0C4.5812 0 0.445312 4.05122 0.445312 9.08685C0.445312 13.1002 3.11238 16.5078 6.78443 17.7194C7.24827 17.7951 7.40288 17.5301 7.40288 17.265C7.40288 17.0378 7.40288 16.4699 7.40288 15.7127C4.81312 16.2806 4.27198 14.5011 4.27198 14.5011C3.84679 13.441 3.22834 13.1759 3.22834 13.1759C2.37797 12.608 3.30565 12.608 3.30565 12.608C4.23332 12.6837 4.73581 13.5546 4.73581 13.5546C5.54753 14.9554 6.90039 14.539 7.44154 14.3118C7.51884 13.706 7.75076 13.3274 8.02133 13.1002C5.97272 12.873 3.80814 12.0779 3.80814 8.59465C3.80814 7.61024 4.15602 6.77728 4.77447 6.17149C4.69716 5.94431 4.34928 5.03563 4.85177 3.74833C4.85177 3.74833 5.62484 3.52115 7.40288 4.69487C8.13729 4.50556 8.94901 4.39198 9.72207 4.39198C10.4951 4.39198 11.3069 4.50556 12.0413 4.69487C13.8193 3.52115 14.5924 3.74833 14.5924 3.74833C15.0949 4.99777 14.7856 5.90645 14.6697 6.17149C15.2495 6.81514 15.636 7.61024 15.636 8.59465C15.636 12.0779 13.4714 12.8352 11.3842 13.0623C11.732 13.3274 12.0026 13.8953 12.0026 14.7283C12.0026 15.9399 12.0026 16.9243 12.0026 17.2272C12.0026 17.4543 12.1572 17.7572 12.6597 17.6815C16.3318 16.5078 18.9988 13.1002 18.9988 9.08685C18.9988 4.05122 14.8629 0 9.72207 0Z" fill="#27272A"/>
</svg>
