<svg width="44" height="45" viewBox="0 0 44 45" fill="none" xmlns="http://www.w3.org/2000/svg">
<rect y="0.5" width="44" height="44" rx="6" fill="#F2F2F2"/>
<path d="M26.2079 11.1949L34.5778 18.7909C34.6586 18.8642 34.7229 18.9521 34.7669 19.0493C34.8108 19.1465 34.8334 19.251 34.8334 19.3566C34.8334 19.4622 34.8108 19.5667 34.7669 19.6639C34.7229 19.7611 34.6586 19.849 34.5778 19.9224L26.2079 27.5184C26.1314 27.5892 26.0407 27.645 25.9411 27.6828C25.8415 27.7206 25.735 27.7395 25.6276 27.7384C25.4056 27.7384 25.1927 27.6556 25.0357 27.5083C24.8787 27.3609 24.7906 27.161 24.7906 26.9526V23.0341C17.3135 23.317 14.1664 27.246 14.0325 27.4136C13.9259 27.5453 13.7788 27.643 13.6112 27.6936C13.4435 27.7442 13.2633 27.7452 13.095 27.6965C12.9271 27.6457 12.7806 27.5465 12.6764 27.4129C12.5722 27.2793 12.5156 27.1182 12.5147 26.9526C12.5147 18.5499 19.8691 15.9725 24.7906 15.7105V11.7606C24.7909 11.6061 24.8398 11.4551 24.9311 11.3265C25.0224 11.1979 25.1521 11.0974 25.3039 11.0377C25.4542 10.9768 25.6204 10.9593 25.7813 10.9873C25.9423 11.0152 26.0907 11.0875 26.2079 11.1949ZM26.4645 22.2379V25.0772L32.7922 19.3566L26.4645 13.6151V16.4754C26.4617 16.6829 26.3725 16.8812 26.2162 17.028C26.0599 17.1748 25.8486 17.2585 25.6276 17.2612C24.545 17.2612 15.7511 17.4917 14.3672 24.8886C17.5768 22.5416 21.5615 21.3255 25.6276 21.4521C25.8486 21.4548 26.0599 21.5384 26.2162 21.6852C26.3725 21.832 26.4617 22.0303 26.4645 22.2379ZM31.1774 27.9721C31.3335 27.8252 31.5445 27.7414 31.7655 27.7384C31.9866 27.7411 32.1978 27.8248 32.3541 27.9716C32.5105 28.1183 32.5996 28.3166 32.6025 28.5242V29.0481C32.6025 30.368 32.044 31.6338 31.0499 32.5671C30.0557 33.5004 28.7074 34.0248 27.3015 34.0248H14.4677C13.0618 34.0248 11.7135 33.5004 10.7194 32.5671C9.72524 31.6338 9.16675 30.368 9.16675 29.0481V16.9992C9.16675 15.6793 9.72524 14.4135 10.7194 13.4802C11.7135 12.5469 13.0618 12.0226 14.4677 12.0226H19.4896C19.7116 12.0226 19.9245 12.1053 20.0815 12.2527C20.2384 12.4001 20.3266 12.5999 20.3266 12.8083C20.3266 13.0168 20.2384 13.2166 20.0815 13.364C19.9245 13.5114 19.7116 13.5941 19.4896 13.5941H14.4677C13.5067 13.5969 12.5858 13.9565 11.9063 14.5945C11.2267 15.2325 10.8437 16.097 10.8407 16.9992V29.0481C10.8437 29.9503 11.2267 30.8148 11.9063 31.4528C12.5858 32.0908 13.5067 32.4504 14.4677 32.4532H27.3015C28.2626 32.4504 29.1834 32.0908 29.8629 31.4528C30.5425 30.8148 30.9255 29.9503 30.9285 29.0481V28.5242C30.9317 28.3167 31.0209 28.1186 31.1774 27.9721Z" fill="#4F4F4F"/>
</svg>
