<svg width="21" height="19" viewBox="0 0 21 19" fill="none" xmlns="http://www.w3.org/2000/svg">
<path d="M10.4129 1.71173C13.0023 1.71173 13.309 1.72123 14.3319 1.76692C14.9469 1.77429 15.5561 1.88491 16.133 2.09397C16.5513 2.252 16.9312 2.49408 17.2482 2.80463C17.5653 3.11518 17.8124 3.48731 17.9737 3.89708C18.1872 4.46213 18.3001 5.05884 18.3076 5.66128C18.3538 6.66325 18.364 6.96362 18.364 9.5C18.364 12.0364 18.3543 12.3367 18.3076 13.3387C18.3001 13.9412 18.1872 14.5379 17.9737 15.1029C17.8124 15.5127 17.5653 15.8848 17.2482 16.1954C16.9312 16.5059 16.5513 16.748 16.133 16.906C15.5561 17.1151 14.9469 17.2257 14.3319 17.2331C13.3094 17.2783 13.0028 17.2883 10.4129 17.2883C7.82308 17.2883 7.51643 17.2788 6.49398 17.2331C5.87895 17.2257 5.26976 17.1151 4.69291 16.906C4.27458 16.748 3.89466 16.5059 3.57763 16.1954C3.26059 15.8848 3.01345 15.5127 2.85212 15.1029C2.63869 14.5379 2.52575 13.9412 2.51823 13.3387C2.47204 12.3367 2.46188 12.0364 2.46188 9.5C2.46188 6.96362 2.47158 6.66325 2.51823 5.66128C2.52575 5.05884 2.63869 4.46213 2.85212 3.89708C3.01345 3.48731 3.26059 3.11518 3.57763 2.80463C3.89466 2.49408 4.27458 2.252 4.69291 2.09397C5.26976 1.88491 5.87895 1.77429 6.49398 1.76692C7.5169 1.72168 7.82354 1.71173 10.4129 1.71173ZM10.4129 0C7.78059 0 7.44901 0.0108566 6.41455 0.0569973C5.60963 0.0726796 4.81325 0.221964 4.0593 0.4985C3.41253 0.737195 2.82671 1.11125 2.34274 1.59457C1.84887 2.06881 1.46667 2.64295 1.22284 3.27689C0.940523 4.01541 0.788119 4.79548 0.772109 5.58392C0.725927 6.59631 0.714844 6.9211 0.714844 9.49955C0.714844 12.078 0.725927 12.4028 0.773032 13.4161C0.789042 14.2045 0.941447 14.9846 1.22376 15.7231C1.46733 16.357 1.84921 16.9311 2.34274 17.4054C2.82698 17.8889 3.41312 18.2629 4.06022 18.5015C4.81418 18.778 5.61055 18.9273 6.41547 18.943C7.44993 18.9882 7.78013 19 10.4139 19C13.0476 19 13.3778 18.9891 14.4122 18.943C15.2172 18.9273 16.0135 18.778 16.7675 18.5015C17.4115 18.257 17.9964 17.8835 18.4846 17.4049C18.9729 16.9263 19.3538 16.3532 19.603 15.7222C19.8853 14.9837 20.0377 14.2036 20.0537 13.4152C20.0999 12.4028 20.111 12.078 20.111 9.49955C20.111 6.9211 20.0999 6.59631 20.0528 5.58302C20.0368 4.79458 19.8844 4.01451 19.6021 3.27599C19.3585 2.64213 18.9767 2.06799 18.4831 1.59366C17.9989 1.11024 17.4127 0.736173 16.7656 0.497595C16.0117 0.221059 15.2153 0.071775 14.4104 0.0560926C13.3768 0.0108567 13.0453 0 10.4129 0Z" fill="#27272A"/>
<path d="M10.4118 4.62109C9.42685 4.62109 8.46398 4.9072 7.64499 5.44323C6.826 5.97925 6.18768 6.74113 5.81074 7.63252C5.4338 8.5239 5.33517 9.50475 5.52734 10.451C5.7195 11.3973 6.19382 12.2665 6.89031 12.9488C7.5868 13.631 8.47419 14.0956 9.44025 14.2838C10.4063 14.4721 11.4077 14.3755 12.3177 14.0062C13.2277 13.637 14.0055 13.0118 14.5527 12.2095C15.1 11.4073 15.392 10.4642 15.392 9.49934C15.392 8.20555 14.8673 6.96475 13.9334 6.0499C12.9994 5.13505 11.7327 4.62109 10.4118 4.62109ZM10.4118 12.6659C9.77247 12.6659 9.14746 12.4801 8.61585 12.1322C8.08424 11.7843 7.66989 11.2897 7.42522 10.7111C7.18054 10.1325 7.11653 9.49583 7.24126 8.88158C7.36599 8.26734 7.67388 7.70312 8.12598 7.26027C8.57808 6.81743 9.15409 6.51585 9.78117 6.39367C10.4083 6.27148 11.0582 6.33419 11.6489 6.57386C12.2396 6.81352 12.7445 7.21939 13.0997 7.74012C13.4549 8.26085 13.6445 8.87306 13.6445 9.49934C13.6445 10.3392 13.3039 11.1446 12.6977 11.7384C12.0915 12.3322 11.2692 12.6659 10.4118 12.6659Z" fill="#27272A"/>
<path d="M15.5896 5.56895C16.2323 5.56895 16.7533 5.05858 16.7533 4.42901C16.7533 3.79943 16.2323 3.28906 15.5896 3.28906C14.9468 3.28906 14.4258 3.79943 14.4258 4.42901C14.4258 5.05858 14.9468 5.56895 15.5896 5.56895Z" fill="#27272A"/>
</svg>
