<svg width="16" height="14" viewBox="0 0 16 14" fill="none" xmlns="http://www.w3.org/2000/svg">
<path d="M15.9968 2.2689C15.397 2.53005 14.7637 2.69328 14.0972 2.79121C14.7637 2.39948 15.297 1.77923 15.5303 1.02841C14.8971 1.3875 14.1972 1.64865 13.4307 1.81188C12.8308 1.19163 11.9643 0.799896 11.0312 0.799896C9.23151 0.799896 7.76513 2.23625 7.76513 3.99906C7.76513 4.26021 7.79846 4.48872 7.86511 4.71724C5.16565 4.58666 2.73279 3.31352 1.09978 1.35485C0.833169 1.84452 0.666535 2.36683 0.666535 2.95443C0.666535 4.06435 1.23309 5.04368 2.13291 5.63128C1.59968 5.59864 1.09978 5.46806 0.633208 5.23955V5.27219C0.633208 6.83913 1.76632 8.14491 3.26602 8.43871C2.99941 8.504 2.69947 8.53664 2.39953 8.53664C2.19957 8.53664 1.96628 8.504 1.76632 8.47135C2.19957 9.74449 3.39933 10.6912 4.83238 10.6912C3.69927 11.5399 2.29955 12.0622 0.766515 12.0622C0.499901 12.0622 0.233287 12.0622 0 12.0296C1.46638 12.9437 3.16604 13.466 5.03234 13.466C11.0645 13.466 14.3638 8.56929 14.3638 4.3255C14.3638 4.19492 14.3638 4.0317 14.3638 3.90112C14.997 3.47675 15.5636 2.92179 15.9968 2.2689Z" fill="#27272A"/>
</svg>
