<svg width="44" height="45" viewBox="0 0 44 45" fill="none" xmlns="http://www.w3.org/2000/svg">
<rect y="0.5" width="44" height="44" rx="5" fill="#1DA1F2" fill-opacity="0.08"/>
<g clip-path="url(#clip0_97_694)">
<path d="M32 16.2988C31.2563 16.625 30.4637 16.8412 29.6375 16.9462C30.4875 16.4388 31.1363 15.6412 31.4412 14.68C30.6488 15.1525 29.7738 15.4863 28.8412 15.6725C28.0887 14.8713 27.0162 14.375 25.8462 14.375C23.5763 14.375 21.7487 16.2175 21.7487 18.4763C21.7487 18.8012 21.7762 19.1137 21.8438 19.4112C18.435 19.245 15.4188 17.6113 13.3925 15.1225C13.0387 15.7363 12.8313 16.4388 12.8313 17.195C12.8313 18.615 13.5625 19.8737 14.6525 20.6025C13.9937 20.59 13.3475 20.3988 12.8 20.0975C12.8 20.11 12.8 20.1262 12.8 20.1425C12.8 22.135 14.2212 23.79 16.085 24.1712C15.7512 24.2625 15.3875 24.3062 15.01 24.3062C14.7475 24.3062 14.4825 24.2913 14.2337 24.2362C14.765 25.86 16.2725 27.0538 18.065 27.0925C16.67 28.1838 14.8988 28.8412 12.9813 28.8412C12.645 28.8412 12.3225 28.8263 12 28.785C13.8162 29.9563 15.9688 30.625 18.29 30.625C25.835 30.625 29.96 24.375 29.96 18.9575C29.96 18.7762 29.9538 18.6013 29.945 18.4275C30.7588 17.85 31.4425 17.1288 32 16.2988Z" fill="#1DA1F2"/>
</g>
<defs>
<clipPath id="clip0_97_694">
<rect width="20" height="20" fill="white" transform="translate(12 12.5)"/>
</clipPath>
</defs>
</svg>
